<svg id="Layer_1" data-name="Layer 1" xmlns="http://www.w3.org/2000/svg" width="20" height="20" viewBox="0 0 20 20"><defs><style>.cls-1{fill:#79808a;}.cls-2{fill:none;stroke:#79808a;stroke-miterlimit:10;stroke-width:1.5px;}</style></defs><path class="cls-1" d="M11.1914,11.834a3.89,3.89,0,0,0-.1143,1.0371H8.7041a6.8885,6.8885,0,0,1,.2813-2.0523,3.6218,3.6218,0,0,1,1.1777-1.3051l.6416-.501a2.2446,2.2446,0,0,0,.51-.5186,1.7682,1.7682,0,0,0,.3515-1.0634,2.0513,2.0513,0,0,0-.3916-1.2173,1.6387,1.6387,0,0,0-1.4277-.5493,1.5741,1.5741,0,0,0-1.4458.6767,2.6022,2.6022,0,0,0-.4263,1.4063h-2.54a4.101,4.101,0,0,1,1.749-3.5508,4.6118,4.6118,0,0,1,2.5488-.668,5.495,5.495,0,0,1,3.3008.9492A3.249,3.249,0,0,1,14.3467,7.29a3.1752,3.1752,0,0,1-.5713,1.9248,6.5678,6.5678,0,0,1-1.2832,1.2129l-.624.4834A1.8886,1.8886,0,0,0,11.1914,11.834Zm.07,4.7812H8.6426v-2.54h2.6191Z"/><circle class="cls-2" cx="10" cy="10" r="9.1493"/></svg>